<svg xmlns="http://www.w3.org/2000/svg" viewBox="0 0 120 60" width="240" height="120"><rect x="1" y="5" width="118" height="54" rx="27.0" fill="#000" opacity="0.25"/><rect x="1" y="1" width="118" height="54" rx="27.0" fill="#2e7d32" stroke="#ffffff" stroke-opacity="0.6" stroke-width="2"/><rect x="8" y="5" width="104" height="22.0" rx="14.0" fill="#fff" opacity="0.15"/><path d="M521 850C488 739 432 631 362 556V763H65V82H175V162H362V520C389 500 422 472 438 456L469 492V384H660C414 175 400 118 400 62C400 -20 461 -73 594 -73H808C919 -73 966 -37 979 146C943 152 904 166 872 184C868 60 853 44 815 44H591C550 44 524 53 524 78C524 112 550 160 903 432C910 438 916 447 920 453L839 498L812 495H471C495 525 518 560 540 597H950V709H597C613 745 627 783 639 821ZM175 647H254V279H175Z" fill="#ffffff" transform="translate(45.00,39.40) scale(0.0300,-0.0300)"/></svg>