<svg xmlns="http://www.w3.org/2000/svg" viewBox="0 0 60 84" width="120" height="168"><rect x="0.5" y="6" width="59" height="77.5" rx="6" fill="#f7c62f"/><rect x="0.5" y="76" width="59" height="7.5" rx="4" fill="#d49a00"/><rect x="0.5" y="0.5" width="59" height="77" rx="6" fill="#fbf6e9" stroke="#e7dcc0" stroke-width="1"/><rect x="3" y="3" width="54" height="72" rx="4" fill="none" stroke="#efe6cf" stroke-width="0.8"/><path d="M14 26 C 16 14, 28 10, 32 12 C 30 20, 24 28, 14 26 Z" fill="#d9822b"/><line x1="14" y1="26" x2="28" y2="15" stroke="#8a4b12" stroke-width="1"/><path d="M375 626 319 543H316V706C341 712 363 717 383 723C420 713 443 716 456 727L297 857C242 803 130 724 36 678L38 669C83 672 130 676 176 682V543H32L40 515H167C140 375 88 218 11 112L22 101C80 144 132 193 176 247V-94H202C271 -94 315 -63 316 -55V408C340 361 361 302 362 248C462 161 575 360 316 437V515H448L457 516C462 482 463 447 460 414C561 306 691 525 431 652L420 647C431 620 441 590 449 557C414 591 375 626 375 626ZM732 800C756 804 767 813 769 829L593 845C593 405 623 128 344 -78L353 -92C616 18 695 177 719 399C734 150 771 -15 865 -95C878 -9 924 59 993 78L994 90C867 150 798 246 762 413C825 462 887 525 940 591C963 588 977 595 983 607L819 685C800 609 775 523 753 457C743 517 736 585 731 663Z" fill="#b5651d" transform="translate(14.93,61.43) scale(0.0300,-0.0300)"/><path d="M273 -14C415 -14 534 64 534 200C534 298 470 360 387 383V388C465 419 510 477 510 557C510 684 413 754 270 754C183 754 112 719 48 664L124 573C167 614 210 638 263 638C326 638 362 604 362 546C362 479 318 433 183 433V327C343 327 386 282 386 209C386 143 335 106 260 106C192 106 139 139 95 182L26 89C78 30 157 -14 273 -14Z" fill="#b5651d" transform="translate(46.92,16.07) scale(0.0110,-0.0110)"/></svg>