<svg xmlns="http://www.w3.org/2000/svg" viewBox="0 0 60 84" width="120" height="168"><rect x="0.5" y="6" width="59" height="77.5" rx="6" fill="#22232a"/><rect x="0.5" y="76" width="59" height="7.5" rx="4" fill="#0e0e12"/><rect x="0.5" y="0.5" width="59" height="77" rx="6" fill="#fbf6e9" stroke="#e7dcc0" stroke-width="1"/><rect x="3" y="3" width="54" height="72" rx="4" fill="none" stroke="#efe6cf" stroke-width="0.8"/><circle cx="18" cy="22" r="10" fill="#1f4e9c"/><circle cx="18" cy="22" r="7.20" fill="#fbf6e9"/><circle cx="18" cy="22" r="5.00" fill="#1f4e9c"/><circle cx="18" cy="22" r="2.00" fill="#fbf6e9"/><circle cx="42" cy="22" r="10" fill="#1f7a4d"/><circle cx="42" cy="22" r="7.20" fill="#fbf6e9"/><circle cx="42" cy="22" r="5.00" fill="#1f7a4d"/><circle cx="42" cy="22" r="2.00" fill="#fbf6e9"/><circle cx="18" cy="56" r="10" fill="#1f7a4d"/><circle cx="18" cy="56" r="7.20" fill="#fbf6e9"/><circle cx="18" cy="56" r="5.00" fill="#1f7a4d"/><circle cx="18" cy="56" r="2.00" fill="#fbf6e9"/><circle cx="42" cy="56" r="10" fill="#1f4e9c"/><circle cx="42" cy="56" r="7.20" fill="#fbf6e9"/><circle cx="42" cy="56" r="5.00" fill="#1f4e9c"/><circle cx="42" cy="56" r="2.00" fill="#fbf6e9"/></svg>