<svg xmlns="http://www.w3.org/2000/svg" viewBox="0 0 60 84" width="120" height="168"><rect x="0.5" y="6" width="59" height="77.5" rx="6" fill="#1f7a4d"/><rect x="0.5" y="76" width="59" height="7.5" rx="4" fill="#145638"/><rect x="0.5" y="0.5" width="59" height="77" rx="6" fill="#fbf6e9" stroke="#e7dcc0" stroke-width="1"/><rect x="3" y="3" width="54" height="72" rx="4" fill="none" stroke="#efe6cf" stroke-width="0.8"/><line x1="22" y1="20" x2="32.0" y2="20.0" stroke="#5a8fd6" stroke-width="1.8" stroke-linecap="round"/><line x1="22" y1="20" x2="27.0" y2="28.7" stroke="#5a8fd6" stroke-width="1.8" stroke-linecap="round"/><line x1="22" y1="20" x2="17.0" y2="28.7" stroke="#5a8fd6" stroke-width="1.8" stroke-linecap="round"/><line x1="22" y1="20" x2="12.0" y2="20.0" stroke="#5a8fd6" stroke-width="1.8" stroke-linecap="round"/><line x1="22" y1="20" x2="17.0" y2="11.3" stroke="#5a8fd6" stroke-width="1.8" stroke-linecap="round"/><line x1="22" y1="20" x2="27.0" y2="11.3" stroke="#5a8fd6" stroke-width="1.8" stroke-linecap="round"/><path d="M360 287 357 276C454 230 536 165 568 129C695 86 752 339 360 287ZM228 102 226 91C410 40 576 -41 649 -91C795 -130 852 162 228 102ZM635 682C601 621 556 563 502 511C449 543 403 582 368 629C385 646 401 664 417 682ZM347 860C300 706 189 535 69 443L75 436C175 475 268 536 347 610C373 551 405 501 442 458C326 364 178 288 16 236L21 225C218 249 386 302 523 382C618 309 735 263 871 231C887 302 926 350 990 366L991 379C865 390 738 411 627 451C699 507 760 572 809 646C837 648 848 651 856 664L724 790L634 710H440C463 739 484 768 502 798C530 797 538 802 542 814Z" fill="#1f4e9c" transform="translate(14.90,61.48) scale(0.0300,-0.0300)"/><path d="M337 0H474V192H562V304H474V741H297L21 292V192H337ZM337 304H164L279 488C300 528 320 569 338 609H343C340 565 337 498 337 455Z" fill="#1f4e9c" transform="translate(46.79,16.08) scale(0.0110,-0.0110)"/></svg>