<svg xmlns="http://www.w3.org/2000/svg" viewBox="0 0 60 84" width="120" height="168"><rect x="0.5" y="6" width="59" height="77.5" rx="6" fill="#1f7a4d"/><rect x="0.5" y="76" width="59" height="7.5" rx="4" fill="#145638"/><rect x="0.5" y="0.5" width="59" height="77" rx="6" fill="#fbf6e9" stroke="#e7dcc0" stroke-width="1"/><rect x="3" y="3" width="54" height="72" rx="4" fill="none" stroke="#efe6cf" stroke-width="0.8"/><circle cx="16" cy="18" r="9.5" fill="#1f4e9c"/><circle cx="16" cy="18" r="6.84" fill="#fbf6e9"/><circle cx="16" cy="18" r="4.75" fill="#1f4e9c"/><circle cx="16" cy="18" r="1.90" fill="#fbf6e9"/><circle cx="44" cy="18" r="9.5" fill="#1f7a4d"/><circle cx="44" cy="18" r="6.84" fill="#fbf6e9"/><circle cx="44" cy="18" r="4.75" fill="#1f7a4d"/><circle cx="44" cy="18" r="1.90" fill="#fbf6e9"/><circle cx="30" cy="39" r="9.5" fill="#c62828"/><circle cx="30" cy="39" r="6.84" fill="#fbf6e9"/><circle cx="30" cy="39" r="4.75" fill="#c62828"/><circle cx="30" cy="39" r="1.90" fill="#fbf6e9"/><circle cx="16" cy="60" r="9.5" fill="#1f7a4d"/><circle cx="16" cy="60" r="6.84" fill="#fbf6e9"/><circle cx="16" cy="60" r="4.75" fill="#1f7a4d"/><circle cx="16" cy="60" r="1.90" fill="#fbf6e9"/><circle cx="44" cy="60" r="9.5" fill="#1f4e9c"/><circle cx="44" cy="60" r="6.84" fill="#fbf6e9"/><circle cx="44" cy="60" r="4.75" fill="#1f4e9c"/><circle cx="44" cy="60" r="1.90" fill="#fbf6e9"/></svg>